<?xml version="1.0" encoding="UTF-8"?>
<svg width="512" height="512" viewBox="0 0 512 512" fill="none" xmlns="http://www.w3.org/2000/svg">
  <!-- Background Circle -->
  <circle cx="256" cy="256" r="248" fill="#7C3AED" stroke="#6D28D9" stroke-width="16"/>
  
  <!-- Stylized Scissors -->
  <g transform="translate(128, 128) scale(0.5)">
    <!-- Left Handle -->
    <path d="M256 384c35.346 0 64-28.654 64-64s-28.654-64-64-64-64 28.654-64 64 28.654 64 64 64z" fill="white"/>
    
    <!-- Right Handle -->
    <path d="M384 256c35.346 0 64-28.654 64-64s-28.654-64-64-64-64 28.654-64 64 28.654 64 64 64z" fill="white"/>
    
    <!-- Blades -->
    <path d="M320 192L192 320M192 192l128 128" stroke="white" stroke-width="32" stroke-linecap="round"/>
  </g>
  
  <!-- Yarn Ball -->
  <circle cx="256" cy="256" r="64" fill="white" opacity="0.2"/>
  <path d="M256 192c35.346 0 64 28.654 64 64 0 35.346-28.654 64-64 64" stroke="white" stroke-width="16" stroke-linecap="round"/>
</svg>